<svg width="32" height="32" viewBox="0 0 32 32" fill="none" xmlns="http://www.w3.org/2000/svg">
<path d="M7 29C8.65685 29 10 27.6569 10 26C10 24.3431 8.65685 23 7 23C5.34315 23 4 24.3431 4 26C4 27.6569 5.34315 29 7 29Z" stroke="#333333" stroke-linecap="round" stroke-linejoin="round"/>
<path d="M23.5 29C25.1569 29 26.5 27.6569 26.5 26C26.5 24.3431 25.1569 23 23.5 23C21.8431 23 20.5 24.3431 20.5 26C20.5 27.6569 21.8431 29 23.5 29Z" stroke="#333333" stroke-linecap="round" stroke-linejoin="round"/>
<path d="M23.5 23H7V2H4" stroke="#333333" stroke-linecap="round" stroke-linejoin="round"/>
<path d="M7 5L28 6.5L26.5 17H7" stroke="#333333" stroke-linecap="round" stroke-linejoin="round"/>
</svg>
