<svg width="32" height="32" viewBox="0 0 32 32" fill="none" xmlns="http://www.w3.org/2000/svg">
<path d="M9.07705 6.93677C7.34006 8.38876 6.0773 10.3176 5.44843 12.4794C4.81955 14.6411 4.85279 16.9388 5.54395 19.0819C6.23511 21.225 7.55314 23.1173 9.33142 24.5195C11.1097 25.9218 13.2684 26.771 15.5346 26.9598C17.8007 27.1487 20.0726 26.6687 22.063 25.5805C24.0534 24.4923 25.6729 22.8448 26.7169 20.8463C27.7608 18.8478 28.1822 16.588 27.9278 14.3527C27.6735 12.1173 26.7548 10.0067 25.2879 8.28768C24.8731 7.79906 24.4161 7.34705 23.9221 6.93677" stroke="#333333" stroke-linecap="round" stroke-linejoin="round"/>
<path d="M16.4995 4V15.7471" stroke="#333333" stroke-linecap="round" stroke-linejoin="round"/>
</svg>
